<svg version="1.1" xmlns="http://www.w3.org/2000/svg" viewBox="0 0 780.7853726279177 227.5428466796875" width="780.7853726279177" height="227.5428466796875">
  <!-- svg-source:excalidraw -->
  
  <defs>
    <style class="style-fonts">
      @font-face {
        font-family: "Virgil";
        src: url("https://excalidraw.com/Virgil.woff2");
      }
      @font-face {
        font-family: "Cascadia";
        src: url("https://excalidraw.com/Cascadia.woff2");
      }
    </style>
  </defs>
  <rect x="0" y="0" width="780.7853726279177" height="227.5428466796875" fill="#ffffff"></rect><g stroke-linecap="round" transform="translate(267.6948323287256 10) rotate(0 115.19998168945312 103.77142333984375)"><path d="M96.65 1.2 C109.52 -2.22, 126.41 0.32, 140.08 2.78 C153.76 5.24, 167.3 9.24, 178.72 15.98 C190.15 22.73, 200.64 32.93, 208.64 43.25 C216.64 53.58, 223.22 65.67, 226.74 77.94 C230.25 90.21, 231.2 104.52, 229.71 116.88 C228.21 129.25, 224.2 141.33, 217.77 152.15 C211.34 162.97, 201.89 173.54, 191.11 181.79 C180.34 190.04, 166.26 197.28, 153.09 201.63 C139.93 205.97, 125.9 208.38, 112.14 207.88 C98.37 207.37, 83.21 203.59, 70.5 198.59 C57.8 193.59, 45.96 186.5, 35.9 177.88 C25.85 169.25, 15.99 157.93, 10.17 146.83 C4.36 135.72, 1.88 123.69, 1.01 111.25 C0.15 98.8, 0.87 84.16, 4.97 72.17 C9.08 60.18, 16.94 49.09, 25.64 39.29 C34.33 29.49, 42.84 19.83, 57.14 13.35 C71.44 6.87, 99.91 2.14, 111.44 0.39 C122.97 -1.36, 126.16 1.05, 126.29 2.85 M163.7 9.9 C176.77 13.7, 189.88 23.58, 199.74 32.73 C209.6 41.88, 217.69 53.27, 222.87 64.79 C228.05 76.31, 230.63 89.59, 230.79 101.85 C230.96 114.11, 228.85 126.7, 223.85 138.35 C218.86 149.99, 210.14 162.07, 200.83 171.7 C191.51 181.32, 180.06 190.26, 167.95 196.11 C155.84 201.96, 141.71 205.23, 128.16 206.78 C114.61 208.33, 99.88 208.36, 86.65 205.42 C73.41 202.47, 59.97 196.45, 48.75 189.1 C37.52 181.75, 26.82 171.78, 19.3 161.29 C11.78 150.81, 6.65 138.52, 3.61 126.2 C0.57 113.87, -0.91 99.94, 1.05 87.33 C3.01 74.72, 8.41 61.36, 15.39 50.51 C22.37 39.67, 32.1 30.06, 42.94 22.27 C53.79 14.48, 67.15 7.25, 80.45 3.79 C93.75 0.33, 108.63 0.58, 122.73 1.52 C136.82 2.45, 158.38 7.73, 165 9.42 C171.62 11.11, 163.45 9.99, 162.45 11.65" stroke="#000000" stroke-width="1" fill="none"></path></g><g stroke-linecap="round"><g transform="translate(10.780525688100624 138.914306640625) rotate(0 120.9722231296729 0.05345697842133745)"><path d="M0.44 0.22 C40.79 0.13, 202.28 -0.13, 242.72 -0.15 M-0.78 -0.72 C39.31 -0.72, 201.02 0.54, 241.53 0.82" stroke="#000000" stroke-width="1" fill="none"></path></g><g transform="translate(10.780525688100624 138.914306640625) rotate(0 120.9722231296729 0.05345697842133745)"><path d="M213.62 10.09 C221.45 7.04, 231.83 4.43, 240.99 0.74 M213.96 11.26 C222.81 8.24, 231.98 3.98, 241.65 0.53" stroke="#000000" stroke-width="1" fill="none"></path></g><g transform="translate(10.780525688100624 138.914306640625) rotate(0 120.9722231296729 0.05345697842133745)"><path d="M213.77 -10.43 C221.61 -6.23, 231.94 -1.57, 240.99 0.74 M214.11 -9.26 C223.07 -5.68, 232.2 -3.35, 241.65 0.53" stroke="#000000" stroke-width="1" fill="none"></path></g></g><mask></mask><g stroke-linecap="round"><g transform="translate(518.2091755904444 138.00006103515625) rotate(0 125.69832035820002 -0.25409131409753627)"><path d="M0.18 0.85 C42.28 0.96, 210.78 0.55, 252.58 0.49 M-1.18 0.26 C40.86 0.02, 210.38 -1.06, 252.23 -1.38" stroke="#000000" stroke-width="1" fill="none"></path></g><g transform="translate(518.2091755904444 138.00006103515625) rotate(0 125.69832035820002 -0.25409131409753627)"><path d="M225.53 10.99 C233.32 5.14, 241.64 1.32, 252.8 -2.61 M224.15 8.27 C233.94 6.83, 242.46 3.57, 251.28 -1.87" stroke="#000000" stroke-width="1" fill="none"></path></g><g transform="translate(518.2091755904444 138.00006103515625) rotate(0 125.69832035820002 -0.25409131409753627)"><path d="M225.39 -9.53 C233.19 -9.26, 241.55 -6.96, 252.8 -2.61 M224.01 -12.25 C233.68 -7.18, 242.24 -3.92, 251.28 -1.87" stroke="#000000" stroke-width="1" fill="none"></path></g></g><mask></mask><g transform="translate(307.9234089888819 69.65713500976562) rotate(0 67.5 37)"><text x="0" y="16.666666666666668" font-family="Virgil, Segoe UI Emoji" font-size="20px" fill="#000000" text-anchor="start" style="white-space: pre;" direction="ltr"></text><text x="0" y="41.333333333333336" font-family="Virgil, Segoe UI Emoji" font-size="20px" fill="#000000" text-anchor="start" style="white-space: pre;" direction="ltr"></text><text x="0" y="66" font-family="Virgil, Segoe UI Emoji" font-size="20px" fill="#000000" text-anchor="start" style="white-space: pre;" direction="ltr">Some function</text></g><g transform="translate(29.980537895131874 119.028564453125) rotate(0 27.5 12.5)"><text x="0" y="16" font-family="Virgil, Segoe UI Emoji" font-size="20px" fill="#000000" text-anchor="start" style="white-space: pre;" direction="ltr">Input</text></g><g transform="translate(536.4948201216944 115.37139892578125) rotate(0 36 12.5)"><text x="0" y="16" font-family="Virgil, Segoe UI Emoji" font-size="20px" fill="#000000" text-anchor="start" style="white-space: pre;" direction="ltr">Output</text></g></svg>